<svg xmlns="http://www.w3.org/2000/svg" width="590.002" height="109.507" viewBox="0 0 590.002 109.507">
  <defs>
    <style>
      .cls-1 {
        fill: #fff;
      }
    </style>
  </defs>
  <g id="Enfusion_logo_white_2021" data-name="Enfusion_logo white 2021" transform="translate(517.002 -309)">
    <path id="Union_22" data-name="Union 22" class="cls-1" d="M101.078,14.93h94.391v94.576ZM520.334,76H501.105a12.125,12.125,0,0,1-12.8-12.824V28.586a12.089,12.089,0,0,1,12.8-12.824h19.229a12.082,12.082,0,0,1,12.8,12.824V63.177a12.125,12.125,0,0,1-12.1,12.844Q520.686,76.021,520.334,76Zm-1.2-6.2a6.474,6.474,0,0,0,6.887-6.962V28.835a6.411,6.411,0,0,0-6.887-6.877H502.288a6.415,6.415,0,0,0-6.866,6.877V62.843a6.477,6.477,0,0,0,6.866,6.962ZM388.29,76H369.062a12.146,12.146,0,0,1-12.8-12.824V15.762h7.118V62.843a6.477,6.477,0,0,0,6.93,6.962h16.839a6.477,6.477,0,0,0,6.866-6.962V15.762h7.08V63.177a12.125,12.125,0,0,1-12.1,12.844C388.755,76.021,388.524,76.014,388.29,76Zm56.031,0h-18.4a12.144,12.144,0,0,1-12.8-12.824V58.028h7.141v4.92a6.438,6.438,0,0,0,6.871,6.962h16.026a6.434,6.434,0,0,0,6.864-6.962V55.941a6.474,6.474,0,0,0-6.864-6.962h-17.2a12.146,12.146,0,0,1-12.8-12.824v-7.57a12.11,12.11,0,0,1,12.8-12.824h18.4a12.108,12.108,0,0,1,12.8,12.824v5.254h-7.145v-5a6.41,6.41,0,0,0-6.864-6.877H427.132a6.413,6.413,0,0,0-6.871,6.877v6.987a6.413,6.413,0,0,0,6.871,6.877h17.189a12.146,12.146,0,0,1,12.8,12.824v7.654A12.146,12.146,0,0,1,445,76.02C444.777,76.02,444.549,76.013,444.321,76ZM583.3,76,552.3,28.835V76h-7.157V15.762h6.7l31.016,47.166V15.762H590V76ZM469.135,76V15.762h7.138V76ZM313.216,76l-.082-60.239h37.109v6.255H320.352v22.4h25.6v6.255h-25.6V76Zm-21.127,0L265.362,34.527V76H255.141V15.762h9.536l26.643,41.474V15.762h10.3V76Zm-86.339-.169V15.762h40.377v8.9H215.968V41.344h25.851v8.865H215.968V66.887h30.159v8.944ZM70.33,75.647V0l75.534,75.647ZM0,15.428H59.323V74.855Z" transform="translate(-517.002 309)"/>
  </g>
</svg>
